<?xml version="1.0" standalone="no"?>
<!DOCTYPE svg PUBLIC "-//W3C//DTD SVG 20010904//EN"
 "http://www.w3.org/TR/2001/REC-SVG-20010904/DTD/svg10.dtd">
<svg version="1.0" xmlns="http://www.w3.org/2000/svg"
 width="222.000000pt" height="222.000000pt" viewBox="0 0 222.000000 222.000000"
 preserveAspectRatio="xMidYMid meet">

<g transform="translate(0.000000,222.000000) scale(0.100000,-0.100000)"
fill="#000000" stroke="none">
<path d="M1010 2210 c-263 -26 -497 -135 -681 -319 -430 -431 -430 -1131 0
-1562 345 -344 877 -422 1306 -190 648 349 777 1231 256 1752 -231 230 -562
350 -881 319z m-480 -664 c0 -5 -86 -325 -116 -434 l-15 -53 -84 5 c-94 4
-129 19 -139 60 -8 33 29 181 55 217 26 36 83 62 129 57 l37 -3 17 72 c14 59
21 73 39 76 32 6 77 8 77 3z m294 -167 c18 -14 26 -30 26 -52 0 -37 -31 -162
-48 -193 -18 -35 -64 -58 -122 -64 l-54 -5 -14 -57 -14 -58 -44 0 c-33 0 -44
4 -44 15 0 9 20 91 44 183 25 92 50 186 56 209 l10 42 89 0 c75 0 94 -3 115
-20z m274 1 c12 -11 24 -31 28 -44 9 -39 -35 -184 -68 -222 -72 -82 -218 -59
-218 33 0 39 32 161 51 190 36 59 162 85 207 43z m139 -67 l-5 -88 41 87 42
88 47 0 47 0 -5 -87 -5 -88 42 88 42 87 43 0 c24 0 44 -4 44 -9 0 -5 -36 -79
-81 -165 l-81 -156 -47 0 -47 0 4 73 3 72 -35 -60 c-19 -33 -38 -65 -43 -72
-4 -6 -26 -13 -48 -15 l-40 -3 -3 168 -2 167 46 0 47 0 -6 -87z m540 67 c12
-10 24 -29 28 -40 7 -23 -12 -117 -28 -137 -6 -9 -37 -13 -88 -13 -78 0 -79 0
-79 -25 0 -20 5 -25 25 -25 14 0 33 9 42 20 12 13 30 20 55 20 47 0 49 -16 8
-63 -72 -83 -220 -65 -220 26 0 46 38 179 58 201 51 57 156 76 199 36z m285
-2 l21 -21 -29 -24 c-28 -22 -34 -23 -84 -7 -33 11 -51 -21 -79 -136 l-27
-115 -49 -3 c-46 -3 -47 -2 -41 20 3 13 22 87 42 165 l37 142 94 0 c82 0 97
-3 115 -21z m-1492 -122 c0 -7 -5 -27 -11 -45 -10 -28 -15 -31 -54 -31 -52 0
-60 9 -45 55 11 34 13 35 61 35 34 0 49 -4 49 -14z m134 -232 c12 -31 7 -74
-9 -74 -8 0 -15 5 -15 12 0 9 -3 9 -12 0 -15 -15 -38 -16 -38 -1 0 20 41 79
55 79 7 0 16 -7 19 -16z m134 -7 c3 -14 -1 -18 -19 -15 -12 2 -24 -2 -26 -9
-3 -7 3 -9 17 -6 18 5 21 2 18 -13 -2 -14 -12 -19 -33 -19 -25 0 -30 4 -33 28
-2 16 2 35 9 43 17 20 63 14 67 -9z m120 0 c3 -14 -1 -18 -19 -15 -12 2 -24
-2 -26 -9 -3 -7 3 -9 17 -6 18 5 21 2 18 -13 -2 -14 -12 -19 -33 -19 -25 0
-30 4 -33 28 -2 16 2 35 9 43 17 20 63 14 67 -9z m122 17 c0 -4 -5 -24 -12
-45 -10 -36 -14 -39 -46 -39 -34 0 -34 0 -27 37 4 21 9 41 11 45 6 10 74 11
74 2z m102 -6 c2 -7 2 -26 -1 -43 -5 -25 -11 -30 -36 -30 -27 0 -30 3 -28 29
1 16 5 36 7 43 7 17 52 17 58 1z m113 0 c3 -7 1 -26 -3 -43 -7 -25 -14 -30
-38 -30 -26 0 -29 3 -27 29 1 16 5 36 7 43 7 17 55 17 61 1z m123 -21 c4 -37
-15 -59 -47 -55 -20 2 -27 9 -29 31 -4 37 15 59 47 55 20 -2 27 -9 29 -31z
m123 21 c1 -7 0 -17 -1 -23 -2 -5 -4 -19 -5 -30 -2 -26 -35 -33 -36 -8 -1 16
-2 17 -6 1 -5 -21 -33 -24 -33 -4 0 7 3 28 6 45 6 27 10 31 40 31 20 0 34 -5
35 -12z m79 -2 c0 -36 -14 -76 -26 -76 -15 0 -18 29 -8 68 7 24 34 31 34 8z
m114 -23 c-9 -52 -10 -53 -50 -53 -38 0 -38 0 -23 53 9 34 13 37 45 37 35 0
35 0 28 -37z m111 25 c3 -7 1 -26 -3 -43 -7 -25 -14 -30 -38 -30 -26 0 -29 3
-27 29 1 16 5 36 7 43 7 17 55 17 61 1z"/>
<path d="M301 1302 c-5 -9 -15 -45 -22 -80 -16 -74 -5 -95 34 -69 17 11 29 34
41 81 9 36 16 70 16 76 0 18 -59 11 -69 -8z"/>
<path d="M694 1309 c-12 -19 -43 -152 -38 -161 9 -14 40 -9 56 10 16 17 48
116 48 146 0 19 -55 23 -66 5z"/>
<path d="M972 1308 c-10 -12 -42 -124 -42 -146 0 -16 30 -23 50 -12 21 11 50
95 50 142 0 23 -4 28 -24 28 -13 0 -28 -6 -34 -12z"/>
<path d="M1652 1308 c-7 -7 -12 -20 -12 -30 0 -14 8 -18 34 -18 34 0 48 18 39
48 -6 15 -45 16 -61 0z"/>
<path d="M1377 1003 c-4 -3 -7 -11 -7 -17 0 -6 5 -5 12 2 6 6 9 14 7 17 -3 3
-9 2 -12 -2z"/>
</g>
</svg>
