<?xml version="1.0" encoding="UTF-8"?>
<!DOCTYPE svg PUBLIC "-//W3C//DTD SVG 1.1//EN" "http://www.w3.org/Graphics/SVG/1.1/DTD/svg11.dtd">
<svg xmlns="http://www.w3.org/2000/svg" version="1.1" width="222px" height="222px" style="shape-rendering:geometricPrecision; text-rendering:geometricPrecision; image-rendering:optimizeQuality; fill-rule:evenodd; clip-rule:evenodd" xmlns:xlink="http://www.w3.org/1999/xlink">
<g><path style="opacity:0.992" fill="#fe6102" d="M 95.5,-0.5 C 105.5,-0.5 115.5,-0.5 125.5,-0.5C 178.5,10.5 210.5,42.5 221.5,95.5C 221.5,105.5 221.5,115.5 221.5,125.5C 210.5,178.5 178.5,210.5 125.5,221.5C 115.5,221.5 105.5,221.5 95.5,221.5C 42.5,210.5 10.5,178.5 -0.5,125.5C -0.5,115.5 -0.5,105.5 -0.5,95.5C 10.5,42.5 42.5,10.5 95.5,-0.5 Z"/></g>
<g><path style="opacity:1" fill="#f2e8e3" d="M 43.5,68.5 C 46.0593,68.1984 48.3926,68.5318 50.5,69.5C 49.5392,72.4261 48.8726,75.4261 48.5,78.5C 47.3664,81.3704 46.6997,84.3704 46.5,87.5C 44.409,92.1906 43.0756,97.1906 42.5,102.5C 40.883,105.189 39.883,108.189 39.5,111.5C 37.2448,114.116 34.9115,114.116 32.5,111.5C 31.4777,111.855 30.811,112.522 30.5,113.5C 22.9148,116.205 18.5815,113.538 17.5,105.5C 17.5676,102.562 18.2342,99.8952 19.5,97.5C 20.9238,95.4855 21.5905,93.1522 21.5,90.5C 22.5222,87.4777 24.5222,85.4777 27.5,84.5C 29.0269,84.573 30.0269,83.9063 30.5,82.5C 32.8333,82.5 35.1667,82.5 37.5,82.5C 38.209,83.404 39.209,83.7373 40.5,83.5C 40.5,82.1667 40.5,80.8333 40.5,79.5C 41.2341,78.2921 41.5674,76.9587 41.5,75.5C 42.9238,73.4855 43.5905,71.1522 43.5,68.5 Z"/></g>
<g><path style="opacity:1" fill="#f3b48d" d="M 43.5,68.5 C 44.6216,67.8442 45.9549,67.5108 47.5,67.5C 49.3328,67.5854 50.6661,68.2521 51.5,69.5C 51.1667,69.5 50.8333,69.5 50.5,69.5C 48.3926,68.5318 46.0593,68.1984 43.5,68.5 Z"/></g>
<g><path style="opacity:1" fill="#f88342" d="M 50.5,69.5 C 50.8333,69.5 51.1667,69.5 51.5,69.5C 51.4725,72.9164 50.4725,75.9164 48.5,78.5C 48.8726,75.4261 49.5392,72.4261 50.5,69.5 Z"/></g>
<g><path style="opacity:1" fill="#f5a87c" d="M 43.5,68.5 C 43.5905,71.1522 42.9238,73.4855 41.5,75.5C 41.4095,72.8478 42.0762,70.5145 43.5,68.5 Z"/></g>
<g><path style="opacity:1" fill="#f29f6a" d="M 62.5,82.5 C 65.3623,81.3187 68.3623,81.3187 71.5,82.5C 68.7188,82.9065 65.7188,82.9065 62.5,82.5 Z"/></g>
<g><path style="opacity:1" fill="#f68f59" d="M 148.5,82.5 C 151.024,81.1997 153.691,81.1997 156.5,82.5C 156.376,83.1067 156.043,83.44 155.5,83.5C 153.393,82.5318 151.059,82.1984 148.5,82.5 Z"/></g>
<g><path style="opacity:1" fill="#f3a57a" d="M 40.5,79.5 C 40.5,80.8333 40.5,82.1667 40.5,83.5C 39.209,83.7373 38.209,83.404 37.5,82.5C 38.8999,81.9002 39.8999,80.9002 40.5,79.5 Z"/></g>
<g><path style="opacity:1" fill="#f3be9f" d="M 30.5,82.5 C 30.0269,83.9063 29.0269,84.573 27.5,84.5C 27.9731,83.0937 28.9731,82.427 30.5,82.5 Z"/></g>
<g><path style="opacity:1" fill="#f1e9e4" d="M 62.5,82.5 C 65.7188,82.9065 68.7188,82.9065 71.5,82.5C 75.8394,81.8461 79.6727,82.8461 83,85.5C 83.4796,90.9188 82.9796,96.2521 81.5,101.5C 80.4625,102.93 79.7959,104.597 79.5,106.5C 75.0491,112.388 69.0491,115.054 61.5,114.5C 60.3414,118.136 59.3414,121.802 58.5,125.5C 56.1667,125.5 53.8333,125.5 51.5,125.5C 51.5,124.5 51.5,123.5 51.5,122.5C 51.5,122.167 51.5,121.833 51.5,121.5C 53.0739,119.898 53.7406,117.898 53.5,115.5C 54.19,110.743 55.19,106.076 56.5,101.5C 57.9215,98.7062 58.9215,95.7062 59.5,92.5C 60.2879,89.1129 61.2879,85.7796 62.5,82.5 Z"/></g>
<g><path style="opacity:1" fill="#f3ad84" d="M 96.5,82.5 C 96.0269,83.9063 95.0269,84.573 93.5,84.5C 93.9731,83.0937 94.9731,82.427 96.5,82.5 Z"/></g>
<g><path style="opacity:1" fill="#f2e7e0" d="M 96.5,82.5 C 99.8499,82.335 103.183,82.5017 106.5,83C 111.038,84.7129 112.538,87.8795 111,92.5C 109.669,97.1501 108.335,101.817 107,106.5C 102.577,113.248 96.41,115.748 88.5,114C 86.9586,112.629 85.6253,111.129 84.5,109.5C 84.6159,106.14 84.9492,102.807 85.5,99.5C 85.2951,92.9069 87.9618,87.9069 93.5,84.5C 95.0269,84.573 96.0269,83.9063 96.5,82.5 Z"/></g>
<g><path style="opacity:1" fill="#f1eae6" d="M 122.5,88.5 C 121.189,92.6829 121.189,97.0162 122.5,101.5C 123.298,101.043 123.631,100.376 123.5,99.5C 125.926,93.651 128.593,87.9844 131.5,82.5C 133.833,82.5 136.167,82.5 138.5,82.5C 138.334,88.8421 138.5,95.1754 139,101.5C 140.039,100.756 140.539,99.7562 140.5,98.5C 142.982,93.0404 145.649,87.707 148.5,82.5C 151.059,82.1984 153.393,82.5318 155.5,83.5C 152.308,88.5499 149.642,93.8832 147.5,99.5C 146.094,99.9731 145.427,100.973 145.5,102.5C 143.322,105.523 141.655,108.856 140.5,112.5C 137.946,113.388 135.279,113.721 132.5,113.5C 132.828,108.125 132.495,102.792 131.5,97.5C 130.702,97.9569 130.369,98.6236 130.5,99.5C 128.326,102.515 126.659,105.849 125.5,109.5C 124.094,109.973 123.427,110.973 123.5,112.5C 123.389,113.117 123.056,113.617 122.5,114C 120.19,114.497 117.857,114.663 115.5,114.5C 115.5,103.833 115.5,93.1667 115.5,82.5C 117.833,82.5 120.167,82.5 122.5,82.5C 122.5,84.5 122.5,86.5 122.5,88.5 Z"/></g>
<g><path style="opacity:1" fill="#f2e8e2" d="M 177.5,84.5 C 178.299,87.4299 178.632,90.4299 178.5,93.5C 177.887,96.0092 177.22,98.5092 176.5,101C 170.843,101.499 165.176,101.666 159.5,101.5C 159.205,103.735 159.539,105.735 160.5,107.5C 164.034,109.244 166.701,108.244 168.5,104.5C 171.388,103.99 173.721,104.656 175.5,106.5C 170.977,113.423 164.644,115.923 156.5,114C 153.384,111.6 152.051,108.433 152.5,104.5C 152.687,100.504 153.687,96.8372 155.5,93.5C 156.492,91.5439 157.492,89.5439 158.5,87.5C 159.673,85.4959 161.34,83.9959 163.5,83C 168.457,81.9656 173.124,82.4656 177.5,84.5 Z"/></g>
<g><path style="opacity:1" fill="#f1e9e3" d="M 188.5,100.5 C 187.076,102.515 186.41,104.848 186.5,107.5C 185.952,109.626 185.285,111.626 184.5,113.5C 182.5,113.5 180.5,113.5 178.5,113.5C 178.833,110.833 179.167,108.167 179.5,105.5C 180.833,100.169 182.166,94.8361 183.5,89.5C 184.219,87.2362 184.552,84.9029 184.5,82.5C 190.509,82.3338 196.509,82.5005 202.5,83C 204.002,83.5831 205.335,84.4164 206.5,85.5C 204.953,87.1936 203.12,88.527 201,89.5C 191.841,87.148 187.674,90.8146 188.5,100.5 Z"/></g>
<g><path style="opacity:1" fill="#f2b692" d="M 170.5,88.5 C 168.435,88.5172 166.435,88.8505 164.5,89.5C 165.134,88.0532 166.301,87.3866 168,87.5C 169.07,87.528 169.903,87.8614 170.5,88.5 Z"/></g>
<g><path style="opacity:1" fill="#f2b89a" d="M 177.5,84.5 C 178.906,84.9731 179.573,85.9731 179.5,87.5C 179.795,89.7354 179.461,91.7354 178.5,93.5C 178.632,90.4299 178.299,87.4299 177.5,84.5 Z"/></g>
<g><path style="opacity:1" fill="#fc6613" d="M 33.5,105.5 C 31.8583,107.081 29.8583,107.747 27.5,107.5C 25.8958,106.713 25.2291,105.38 25.5,103.5C 26.9238,101.485 27.5905,99.1522 27.5,96.5C 27.5081,89.643 30.6747,87.3096 37,89.5C 36.5126,95.0809 35.3459,100.414 33.5,105.5 Z"/></g>
<g><path style="opacity:1" fill="#fc6919" d="M 64.5,103.5 C 65.9238,101.485 66.5905,99.1522 66.5,96.5C 66.3196,90.1803 69.3196,87.6803 75.5,89C 75.9146,94.2242 75.0813,99.3909 73,104.5C 71.1482,108.077 68.4815,109.077 65,107.5C 64.51,106.207 64.3433,104.873 64.5,103.5 Z"/></g>
<g><path style="opacity:1" fill="#fc6919" d="M 97.5,88.5 C 99.4672,88.2606 101.301,88.5939 103,89.5C 103.145,95.7818 101.645,101.615 98.5,107C 96.5,107.667 94.5,107.667 92.5,107C 91.9186,106.107 91.5852,105.107 91.5,104C 91.959,98.0889 93.959,92.9222 97.5,88.5 Z"/></g>
<g><path style="opacity:1" fill="#f3c6ab" d="M 158.5,87.5 C 157.492,89.5439 156.492,91.5439 155.5,93.5C 155.025,90.6874 156.025,88.6874 158.5,87.5 Z"/></g>
<g><path style="opacity:1" fill="#fb640e" d="M 170.5,88.5 C 171.341,90.3792 171.675,92.3792 171.5,94.5C 171.5,94.8333 171.5,95.1667 171.5,95.5C 168.5,95.5 165.5,95.5 162.5,95.5C 162.5,94.5 162.5,93.5 162.5,92.5C 163.167,91.5 163.833,90.5 164.5,89.5C 166.435,88.8505 168.435,88.5172 170.5,88.5 Z"/></g>
<g><path style="opacity:1" fill="#f1bc9d" d="M 170.5,88.5 C 171.693,88.9704 172.36,89.9704 172.5,91.5C 172.48,92.7261 172.147,93.7261 171.5,94.5C 171.675,92.3792 171.341,90.3792 170.5,88.5 Z"/></g>
<g><path style="opacity:1" fill="#f3a87e" d="M 122.5,88.5 C 122.185,92.3714 122.518,96.0381 123.5,99.5C 123.631,100.376 123.298,101.043 122.5,101.5C 121.189,97.0162 121.189,92.6829 122.5,88.5 Z"/></g>
<g><path style="opacity:1" fill="#f97d3c" d="M 59.5,92.5 C 58.9215,95.7062 57.9215,98.7062 56.5,101.5C 56.6495,100.448 56.4828,99.448 56,98.5C 55.7679,99.7375 55.2679,100.737 54.5,101.5C 54.5172,99.4352 54.8505,97.4352 55.5,95.5C 56.5,95.5 57.5,95.5 58.5,95.5C 58.2627,94.209 58.596,93.209 59.5,92.5 Z"/></g>
<g><path style="opacity:1" fill="#f59762" d="M 131.5,82.5 C 133.948,81.5269 136.615,81.1936 139.5,81.5C 139.178,87.358 139.511,93.0247 140.5,98.5C 140.539,99.7562 140.039,100.756 139,101.5C 138.5,95.1754 138.334,88.8421 138.5,82.5C 136.167,82.5 133.833,82.5 131.5,82.5 Z"/></g>
<g><path style="opacity:1" fill="#f3b38c" d="M 162.5,92.5 C 162.5,93.5 162.5,94.5 162.5,95.5C 165.5,95.5 168.5,95.5 171.5,95.5C 168.375,96.4794 165.042,96.8128 161.5,96.5C 161.232,94.901 161.566,93.5676 162.5,92.5 Z"/></g>
<g><path style="opacity:1" fill="#f4a87b" d="M 21.5,90.5 C 21.5905,93.1522 20.9238,95.4855 19.5,97.5C 19.4095,94.8478 20.0762,92.5145 21.5,90.5 Z"/></g>
<g><path style="opacity:1" fill="#f1ece8" d="M 55.5,95.5 C 54.8505,97.4352 54.5172,99.4352 54.5,101.5C 51.3019,102.036 48.6353,101.369 46.5,99.5C 46.5,98.1667 46.5,96.8333 46.5,95.5C 49.5,95.5 52.5,95.5 55.5,95.5 Z"/></g>
<g><path style="opacity:1" fill="#f77d39" d="M 46.5,87.5 C 46.3259,89.861 45.9926,92.1944 45.5,94.5C 49.0419,94.1872 52.3752,94.5206 55.5,95.5C 52.5,95.5 49.5,95.5 46.5,95.5C 46.5,96.8333 46.5,98.1667 46.5,99.5C 45.596,100.209 45.2627,101.209 45.5,102.5C 44.7321,101.737 44.2321,100.737 44,99.5C 43.7679,100.737 43.2679,101.737 42.5,102.5C 43.0756,97.1906 44.409,92.1906 46.5,87.5 Z"/></g>
<g><path style="opacity:1" fill="#f4ad83" d="M 140.5,112.5 C 138.012,114.388 135.012,115.055 131.5,114.5C 131.821,109.305 131.487,104.305 130.5,99.5C 130.369,98.6236 130.702,97.9569 131.5,97.5C 132.495,102.792 132.828,108.125 132.5,113.5C 135.279,113.721 137.946,113.388 140.5,112.5 Z"/></g>
<g><path style="opacity:1" fill="#f3b793" d="M 46.5,99.5 C 48.6353,101.369 51.3019,102.036 54.5,101.5C 51.7131,102.477 48.7131,102.81 45.5,102.5C 45.2627,101.209 45.596,100.209 46.5,99.5 Z"/></g>
<g><path style="opacity:1" fill="#f49a66" d="M 147.5,99.5 C 147.573,101.027 146.906,102.027 145.5,102.5C 145.427,100.973 146.094,99.9731 147.5,99.5 Z"/></g>
<g><path style="opacity:1" fill="#f78a4c" d="M 27.5,96.5 C 27.5905,99.1522 26.9238,101.485 25.5,103.5C 25.4095,100.848 26.0762,98.5145 27.5,96.5 Z"/></g>
<g><path style="opacity:1" fill="#f68a4b" d="M 66.5,96.5 C 66.5905,99.1522 65.9238,101.485 64.5,103.5C 64.4095,100.848 65.0762,98.5145 66.5,96.5 Z"/></g>
<g><path style="opacity:1" fill="#fc640f" d="M 168.5,104.5 C 166.701,108.244 164.034,109.244 160.5,107.5C 160.5,105.833 160.5,104.167 160.5,102.5C 165.511,102.334 170.511,102.501 175.5,103C 172.964,103.186 170.631,103.686 168.5,104.5 Z"/></g>
<g><path style="opacity:1" fill="#f97630" d="M 179.5,87.5 C 180.161,88.7175 180.828,90.0508 181.5,91.5C 182.182,90.7573 182.849,90.0906 183.5,89.5C 182.166,94.8361 180.833,100.169 179.5,105.5C 179.167,105.5 178.833,105.5 178.5,105.5C 177.391,105.557 176.391,105.89 175.5,106.5C 173.721,104.656 171.388,103.99 168.5,104.5C 170.631,103.686 172.964,103.186 175.5,103C 170.511,102.501 165.511,102.334 160.5,102.5C 160.5,104.167 160.5,105.833 160.5,107.5C 159.539,105.735 159.205,103.735 159.5,101.5C 165.176,101.666 170.843,101.499 176.5,101C 177.22,98.5092 177.887,96.0092 178.5,93.5C 179.461,91.7354 179.795,89.7354 179.5,87.5 Z"/></g>
<g><path style="opacity:1" fill="#f68748" d="M 81.5,101.5 C 81.8799,103.698 81.2132,105.365 79.5,106.5C 79.7959,104.597 80.4625,102.93 81.5,101.5 Z"/></g>
<g><path style="opacity:1" fill="#f59d69" d="M 85.5,99.5 C 84.9492,102.807 84.6159,106.14 84.5,109.5C 83.1353,106.041 83.4686,102.708 85.5,99.5 Z"/></g>
<g><path style="opacity:1" fill="#f69762" d="M 188.5,100.5 C 188.59,103.152 187.924,105.485 186.5,107.5C 186.41,104.848 187.076,102.515 188.5,100.5 Z"/></g>
<g><path style="opacity:1" fill="#f4caaf" d="M 33.5,105.5 C 33.5858,106.496 33.2524,107.329 32.5,108C 30.6131,108.78 28.9464,108.613 27.5,107.5C 29.8583,107.747 31.8583,107.081 33.5,105.5 Z"/></g>
<g><path style="opacity:1" fill="#f3aa7e" d="M 178.5,105.5 C 178.833,105.5 179.167,105.5 179.5,105.5C 179.167,108.167 178.833,110.833 178.5,113.5C 180.5,113.5 182.5,113.5 184.5,113.5C 182.393,114.468 180.059,114.802 177.5,114.5C 177.508,111.455 177.841,108.455 178.5,105.5 Z"/></g>
<g><path style="opacity:1" fill="#f69862" d="M 125.5,109.5 C 125.573,111.027 124.906,112.027 123.5,112.5C 123.427,110.973 124.094,109.973 125.5,109.5 Z"/></g>
<g><path style="opacity:1" fill="#f1c8af" d="M 39.5,111.5 C 39.5,112.5 39.5,113.5 39.5,114.5C 36.4299,114.632 33.4299,114.299 30.5,113.5C 30.811,112.522 31.4777,111.855 32.5,111.5C 34.9115,114.116 37.2448,114.116 39.5,111.5 Z"/></g>
<g><path style="opacity:1" fill="#f6a476" d="M 53.5,115.5 C 53.7406,117.898 53.0739,119.898 51.5,121.5C 51.595,119.214 52.2616,117.214 53.5,115.5 Z"/></g>
<g><path style="opacity:1" fill="#f5aa80" d="M 139.5,118.5 C 138.761,118.369 138.094,118.536 137.5,119C 139.495,119.924 139.828,121.09 138.5,122.5C 138.631,121.624 138.298,120.957 137.5,120.5C 136.614,121.325 136.281,122.325 136.5,123.5C 135.033,120.742 134.367,121.075 134.5,124.5C 133.031,121.898 133.698,119.731 136.5,118C 137.749,117.26 138.749,117.427 139.5,118.5 Z"/></g>
<g><path style="opacity:1" fill="#f3bfa2" d="M 152.5,122.5 C 151.833,123.5 151.167,124.5 150.5,125.5C 149.88,123.023 148.88,123.023 147.5,125.5C 146.526,123.257 146.192,120.924 146.5,118.5C 148.833,118.5 151.167,118.5 153.5,118.5C 153.567,119.959 153.234,121.292 152.5,122.5 Z"/></g>
<g><path style="opacity:1" fill="#f5935e" d="M 106.5,119.5 C 106.167,120.167 105.833,120.833 105.5,121.5C 104.325,121.719 103.325,121.386 102.5,120.5C 103.689,119.571 105.022,119.238 106.5,119.5 Z"/></g>
<g><path style="opacity:1" fill="#f3ae86" d="M 127.5,124.5 C 127.262,121.931 125.929,120.265 123.5,119.5C 124.585,117.418 126.085,117.084 128,118.5C 128.789,120.712 128.622,122.712 127.5,124.5 Z"/></g>
<g><path style="opacity:1" fill="#f59365" d="M 172.5,119.5 C 172.167,120.167 171.833,120.833 171.5,121.5C 170.325,121.719 169.325,121.386 168.5,120.5C 169.689,119.571 171.022,119.238 172.5,119.5 Z"/></g>
<g><path style="opacity:1" fill="#f0c7ad" d="M 69.5,121.5 C 69.6567,122.873 69.49,124.207 69,125.5C 68.6174,124.944 68.1174,124.611 67.5,124.5C 66.0331,125.292 64.6998,125.292 63.5,124.5C 64.3333,122.833 65.1667,121.167 66,119.5C 67.0113,118.663 68.1779,118.33 69.5,118.5C 69.5,119.5 69.5,120.5 69.5,121.5 Z"/></g>
<g><path style="opacity:1" fill="#f1c1a2" d="M 94.5,119.5 C 92.6136,120.065 90.9469,121.065 89.5,122.5C 90.9492,123.172 92.2825,123.839 93.5,124.5C 92.0536,125.613 90.3869,125.78 88.5,125C 87.0494,120.45 88.7161,118.116 93.5,118C 94.056,118.383 94.3893,118.883 94.5,119.5 Z"/></g>
<g><path style="opacity:1" fill="#f7772e" d="M 94.5,119.5 C 95.6921,120.566 95.3588,121.399 93.5,122C 94.7736,122.977 94.7736,123.811 93.5,124.5C 92.2825,123.839 90.9492,123.172 89.5,122.5C 90.9469,121.065 92.6136,120.065 94.5,119.5 Z"/></g>
<g><path style="opacity:1" fill="#f8620c" d="M 138.5,122.5 C 138.158,123.338 137.492,123.672 136.5,123.5C 136.281,122.325 136.614,121.325 137.5,120.5C 138.298,120.957 138.631,121.624 138.5,122.5 Z"/></g>
<g><path style="opacity:1" fill="#f5b690" d="M 158.5,118.5 C 159.675,118.281 160.675,118.614 161.5,119.5C 161.088,121.887 160.088,123.887 158.5,125.5C 157.637,123.229 157.637,120.895 158.5,118.5 Z"/></g>
<g><path style="opacity:1" fill="#f1ccb5" d="M 172.5,119.5 C 171.022,119.238 169.689,119.571 168.5,120.5C 169.325,121.386 170.325,121.719 171.5,121.5C 171.5,121.833 171.5,122.167 171.5,122.5C 168.282,122.651 167.949,123.484 170.5,125C 169.667,125.167 168.833,125.333 168,125.5C 166.624,125.316 165.791,124.649 165.5,123.5C 166.038,121.883 166.371,120.216 166.5,118.5C 168.735,118.205 170.735,118.539 172.5,119.5 Z"/></g>
<g><path style="opacity:1" fill="#eecfbb" d="M 106.5,119.5 C 105.022,119.238 103.689,119.571 102.5,120.5C 103.325,121.386 104.325,121.719 105.5,121.5C 105.5,121.833 105.5,122.167 105.5,122.5C 101.029,122.672 100.696,123.506 104.5,125C 102.866,125.494 101.199,125.66 99.5,125.5C 99.9926,123.194 100.326,120.861 100.5,118.5C 102.735,118.205 104.735,118.539 106.5,119.5 Z"/></g>
<g><path style="opacity:1" fill="#f5925c" d="M 112.5,122.5 C 113.376,122.369 114.043,122.702 114.5,123.5C 114.062,124.506 113.396,124.506 112.5,123.5C 111.702,123.957 111.369,124.624 111.5,125.5C 110.115,124.053 110.448,123.053 112.5,122.5 Z"/></g>
<g><path style="opacity:1" fill="#f2c6aa" d="M 111.5,125.5 C 111.369,124.624 111.702,123.957 112.5,123.5C 113.396,124.506 114.062,124.506 114.5,123.5C 114.043,122.702 113.376,122.369 112.5,122.5C 111.316,121.312 111.316,120.145 112.5,119C 114.259,118.202 115.926,118.369 117.5,119.5C 116.652,121.409 116.318,123.409 116.5,125.5C 114.833,125.5 113.167,125.5 111.5,125.5 Z"/></g>
<g><path style="opacity:1" fill="#f48f58" d="M 123.5,121.5 C 126.239,124.023 125.906,124.69 122.5,123.5C 122.833,122.833 123.167,122.167 123.5,121.5 Z"/></g>
<g><path style="opacity:1" fill="#f1c4a8" d="M 139.5,118.5 C 141.377,119.659 141.877,121.326 141,123.5C 138.984,125.608 136.817,125.942 134.5,124.5C 134.367,121.075 135.033,120.742 136.5,123.5C 137.492,123.672 138.158,123.338 138.5,122.5C 139.828,121.09 139.495,119.924 137.5,119C 138.094,118.536 138.761,118.369 139.5,118.5 Z"/></g>
<g><path style="opacity:1" fill="#f59057" d="M 178.5,121.5 C 179.478,121.811 180.145,122.478 180.5,123.5C 180.062,124.506 179.396,124.506 178.5,123.5C 177.702,123.957 177.369,124.624 177.5,125.5C 176.903,125.265 176.57,124.765 176.5,124C 177.056,122.989 177.722,122.156 178.5,121.5 Z"/></g>
<g><path style="opacity:1" fill="#f5894f" d="M 105.5,122.5 C 105.5,123.833 105.5,125.167 105.5,126.5C 103.265,126.795 101.265,126.461 99.5,125.5C 101.199,125.66 102.866,125.494 104.5,125C 100.696,123.506 101.029,122.672 105.5,122.5 Z"/></g>
<g><path style="opacity:1" fill="#f48d55" d="M 183.5,120.5 C 183.768,122.099 183.434,123.432 182.5,124.5C 182.297,122.956 181.63,121.622 180.5,120.5C 181.233,119.913 182.233,119.913 183.5,120.5 Z"/></g>
<g><path style="opacity:1" fill="#f2bb98" d="M 78.5,117.5 C 80.3464,117.222 81.6798,117.889 82.5,119.5C 81.3112,120.429 79.9778,120.762 78.5,120.5C 78.281,121.675 78.6143,122.675 79.5,123.5C 80.6086,122.41 81.6086,122.41 82.5,123.5C 80.6847,125.694 78.518,126.028 76,124.5C 75.3333,123.167 75.3333,121.833 76,120.5C 77.045,119.627 77.8783,118.627 78.5,117.5 Z"/></g>
<g><path style="opacity:1" fill="#f0ccb4" d="M 123.5,119.5 C 125.929,120.265 127.262,121.931 127.5,124.5C 126.903,125.139 126.07,125.472 125,125.5C 123.624,125.316 122.791,124.649 122.5,123.5C 125.906,124.69 126.239,124.023 123.5,121.5C 123.5,120.833 123.5,120.167 123.5,119.5 Z"/></g>
<g><path style="opacity:1" fill="#f1c9b1" d="M 183.5,120.5 C 182.233,119.913 181.233,119.913 180.5,120.5C 181.63,121.622 182.297,122.956 182.5,124.5C 181.081,125.451 179.415,125.784 177.5,125.5C 177.369,124.624 177.702,123.957 178.5,123.5C 179.396,124.506 180.062,124.506 180.5,123.5C 180.145,122.478 179.478,121.811 178.5,121.5C 178.5,120.5 178.5,119.5 178.5,118.5C 180.781,118.077 182.448,118.744 183.5,120.5 Z"/></g>
<g><path style="opacity:1" fill="#f5884e" d="M 51.5,122.5 C 51.5,123.5 51.5,124.5 51.5,125.5C 53.8333,125.5 56.1667,125.5 58.5,125.5C 56.0521,126.473 53.3854,126.806 50.5,126.5C 50.2322,124.901 50.5655,123.568 51.5,122.5 Z"/></g>
<g><path style="opacity:1" fill="#f4823d" d="M 69.5,121.5 C 70.4511,122.919 70.7845,124.585 70.5,126.5C 68.8212,126.715 67.8212,126.048 67.5,124.5C 68.1174,124.611 68.6174,124.944 69,125.5C 69.49,124.207 69.6567,122.873 69.5,121.5 Z"/></g>
<g><path style="opacity:1" fill="#f4884c" d="M 152.5,122.5 C 152.762,123.978 152.429,125.311 151.5,126.5C 150.893,126.376 150.56,126.043 150.5,125.5C 151.167,124.5 151.833,123.5 152.5,122.5 Z"/></g>
<g><path style="opacity:1" fill="#f6874c" d="M 171.5,122.5 C 171.5,123.833 171.5,125.167 171.5,126.5C 169.167,126.5 166.833,126.5 164.5,126.5C 164.263,125.209 164.596,124.209 165.5,123.5C 165.791,124.649 166.624,125.316 168,125.5C 168.833,125.333 169.667,125.167 170.5,125C 167.949,123.484 168.282,122.651 171.5,122.5 Z"/></g>
</svg>
